<?xml version="1.0" encoding="UTF-8"?>
<svg version="1.1" xmlns="http://www.w3.org/2000/svg" width="200" height="200">
<path d="M0 0 C0.95479248 0.13639893 1.90958496 0.27279785 2.89331055 0.41333008 C22.67595749 3.36455263 44.08728327 8.82073309 57.2421875 25.14453125 C62.37182074 32.54445671 64.27049081 38.72995667 63.3125 47.75 C60.90272053 57.53467503 53.15205194 65.13172552 45 70.5625 C16.91141452 87.2046939 -18.96288837 89.50684844 -50.31542969 82.13183594 C-67.68951408 77.38968418 -83.7573179 69.29969296 -93.62890625 53.6953125 C-96.67944371 48.08952779 -96.38849274 41.94094577 -95.6875 35.75 C-91.65529922 23.57370989 -81.51888736 16.16584386 -70.56420898 10.49853516 C-49.03299894 -0.09128846 -23.65420349 -3.38403974 0 0 Z " fill="#DA2029" transform="translate(115.6875,46.25)"/>
<path d="M0 0 C0.99 0 1.98 0 3 0 C3.99 4.95 3.99 4.95 5 10 C3 10 1 10 -1 10 C-0.773125 10.598125 -0.54625 11.19625 -0.3125 11.8125 C0 14 0 14 -1.0625 15.75 C-3.75171012 17.48497427 -5.86895563 17.20873629 -9 17 C-9.0825 17.598125 -9.165 18.19625 -9.25 18.8125 C-10.424567 22.23832042 -12.87906748 23.32744049 -15.875 25.125 C-18 26 -18 26 -21.0625 26.4375 C-23.99476671 26.714016 -23.99476671 26.714016 -25.5 28.5 C-27.68874114 30.68874114 -30.01320194 30.54548725 -33 31 C-33.33 31.66 -33.66 32.32 -34 33 C-36.97 32.505 -36.97 32.505 -40 32 C-40 32.99 -40 33.98 -40 35 C-42.64 35.33 -45.28 35.66 -48 36 C-48.33 35.34 -48.66 34.68 -49 34 C-49.2371875 34.64453125 -49.474375 35.2890625 -49.71875 35.953125 C-51 38 -51 38 -53.09375 38.609375 C-53.8878125 38.65578125 -54.681875 38.7021875 -55.5 38.75 C-56.2940625 38.80671875 -57.088125 38.8634375 -57.90625 38.921875 C-59.27013267 38.97276614 -60.6351682 39 -62 39 C-23.885 39.495 -23.885 39.495 15 40 C15 41.98 15 43.96 15 46 C13.68 46.33 12.36 46.66 11 47 C11 50.3 11 53.6 11 57 C8.03 57.495 8.03 57.495 5 58 C5.01160156 58.63808594 5.02320313 59.27617187 5.03515625 59.93359375 C5.04417969 60.75988281 5.05320313 61.58617187 5.0625 62.4375 C5.07410156 63.26121094 5.08570313 64.08492188 5.09765625 64.93359375 C5 67 5 67 4 68 C1.81360547 68.07258946 -0.37500389 68.08373783 -2.5625 68.0625 C-4.35880859 68.04896484 -4.35880859 68.04896484 -6.19140625 68.03515625 C-7.58166016 68.01775391 -7.58166016 68.01775391 -9 68 C-9 64.37 -9 60.74 -9 57 C-10.98 57 -12.96 57 -15 57 C-15 53.7 -15 50.4 -15 47 C-22.26 47 -29.52 47 -37 47 C-37 53.93 -37 60.86 -37 68 C-41.62 68 -46.24 68 -51 68 C-51 61.07 -51 54.14 -51 47 C-62.22 47 -73.44 47 -85 47 C-82.41899567 52.04388709 -82.41899567 52.04388709 -79.82446289 57.08081055 C-79.5021167 57.71801025 -79.17977051 58.35520996 -78.84765625 59.01171875 C-78.51773682 59.65584717 -78.18781738 60.29997559 -77.84790039 60.96362305 C-77 63 -77 63 -76 68 C-80.29 68 -84.58 68 -89 68 C-89.33 67.34 -89.66 66.68 -90 66 C-92.12576782 65.53348793 -92.12576782 65.53348793 -94.5625 65.375 C-95.80193359 65.26285156 -95.80193359 65.26285156 -97.06640625 65.1484375 C-97.70449219 65.09945312 -98.34257813 65.05046875 -99 65 C-99.495 66.485 -99.495 66.485 -100 68 C-104.29 68 -108.58 68 -113 68 C-110.75 61.25 -110.75 61.25 -109.2734375 58.1328125 C-108.99419434 57.53871582 -108.71495117 56.94461914 -108.42724609 56.33251953 C-108.08000488 55.60403809 -107.73276367 54.87555664 -107.375 54.125 C-106.26125 51.77375 -105.1475 49.4225 -104 47 C-113.9 47 -123.8 47 -134 47 C-134 53.93 -134 60.86 -134 68 C-138.29 68 -142.58 68 -147 68 C-147.33 65.03 -147.66 62.06 -148 59 C-148.33 59.66 -148.66 60.32 -149 61 C-152.875 60.125 -152.875 60.125 -154 59 C-154.33 61.97 -154.66 64.94 -155 68 C-159.29 68 -163.58 68 -168 68 C-168 61.07 -168 54.14 -168 47 C-168.99 46.67 -169.98 46.34 -171 46 C-171 44.02 -171 42.04 -171 40 C-146.91 39.67 -122.82 39.34 -98 39 C-98.99 36.525 -98.99 36.525 -100 34 C-98.35 32.35 -96.7 30.7 -95 29 C-92.69 29.66 -90.38 30.32 -88 31 C-87.505 30.505 -87.505 30.505 -87 30 C-85.33382885 29.95936168 -83.66611905 29.957279 -82 30 C-81 34.75 -81 34.75 -81 37 C-82.32 37 -83.64 37 -85 37 C-85 37.99 -85 38.98 -85 40 C-82.03 40 -79.06 40 -76 40 C-76 38.02 -76 36.04 -76 34 C-76.99 34 -77.98 34 -79 34 C-79 33.01 -79 32.02 -79 31 C-74.23587295 29.87027134 -69.80377074 30.0049818 -64.9375 30.16015625 C-61.85584795 29.99214065 -59.80135015 29.23603014 -57 28 C-54.3125 27.75 -54.3125 27.75 -52 28 C-51.01 28.99 -51.01 28.99 -50 30 C-50 29.01 -50 28.02 -50 27 C-48.68942607 26.63877119 -47.37646376 26.28619689 -46.0625 25.9375 C-44.96615234 25.64166016 -44.96615234 25.64166016 -43.84765625 25.33984375 C-43.23792969 25.22769531 -42.62820312 25.11554688 -42 25 C-41.67 25.33 -41.34 25.66 -41 26 C-40.566875 25.505 -40.13375 25.01 -39.6875 24.5 C-38 23 -38 23 -35 23 C-34.34 22.34 -33.68 21.68 -33 21 C-29.875 20.875 -29.875 20.875 -27 21 C-27 20.01 -27 19.02 -27 18 C-23.20411134 18.54226981 -21.52788007 20.20127563 -19 23 C-19.99 20.03 -19.99 20.03 -21 17 C-18.51015791 14.24338912 -16.79450934 12.39253545 -13 12 C-12.67 12.33 -12.34 12.66 -12 13 C-11.38125 11.824375 -11.38125 11.824375 -10.75 10.625 C-8.9607223 7.94108344 -7.95011861 7.11901051 -5 6 C-5 5.34 -5 4.68 -5 4 C-3.68 4 -2.36 4 -1 4 C-0.67 2.68 -0.34 1.36 0 0 Z M-8 11 C-7 13 -7 13 -7 13 Z M-16 16 C-16 17.32 -16 18.64 -16 20 C-15.01 20 -14.02 20 -13 20 C-13.33 18.68 -13.66 17.36 -14 16 C-14.66 16 -15.32 16 -16 16 Z M-32 24 C-31.67 25.32 -31.34 26.64 -31 28 C-30.01 27.67 -29.02 27.34 -28 27 C-28.33 26.01 -28.66 25.02 -29 24 C-29.99 24 -30.98 24 -32 24 Z M-36 26 C-35 28 -35 28 -35 28 Z M-46 28 C-45 30 -45 30 -45 30 Z M-35 28 C-34 30 -34 30 -34 30 Z M-45 31 C-44 33 -44 33 -44 33 Z M-64 32 C-63 34 -63 34 -63 34 Z M-59 32 C-58.67 33.32 -58.34 34.64 -58 36 C-56.68 35.67 -55.36 35.34 -54 35 C-54.33 34.01 -54.66 33.02 -55 32 C-56.32 32 -57.64 32 -59 32 Z M-95 33 C-95 34.32 -95 35.64 -95 37 C-94.01 36.67 -93.02 36.34 -92 36 C-92 35.01 -92 34.02 -92 33 C-92.99 33 -93.98 33 -95 33 Z M-71 33 C-72.35618499 34.12534105 -72.35618499 34.12534105 -72.0625 37.0625 C-72.041875 38.031875 -72.02125 39.00125 -72 40 C-71.01 39.67 -70.02 39.34 -69 39 C-69.33 37.02 -69.66 35.04 -70 33 C-70.33 33 -70.66 33 -71 33 Z M-90 37 C-90 37.66 -90 38.32 -90 39 C-90.99 39.495 -90.99 39.495 -92 40 C-90.68 39.67 -89.36 39.34 -88 39 C-88.66 38.34 -89.32 37.68 -90 37 Z M-156 46 C-154.68 47.32 -153.36 48.64 -152 50 C-149.53199953 48.84826645 -147.95216435 47.95216435 -146 46 C-149.3 46 -152.6 46 -156 46 Z " fill="#2E3090" transform="translate(178,105)"/>
<path d="M0 0 C4.33070885 1.31467947 5.23661158 2.16010618 7.5 6.0625 C11.5 15.52962803 11.5 15.52962803 11.5 20.0625 C12.35980469 19.77375 13.21960938 19.485 14.10546875 19.1875 C22.31556553 16.60897451 29.83193993 14.9613875 38.5 16.0625 C41.5 18.0625 41.5 18.0625 42.0625 20.6875 C40.7475794 28.57702359 34.38862818 33.28014781 28.2578125 37.8125 C27.67773438 38.225 27.09765625 38.6375 26.5 39.0625 C30.06851664 42.74253279 33.81499058 46.10499682 37.73046875 49.4140625 C40.06163109 51.58569718 41.38539961 53.31759748 41.875 56.5 C41.5 59.0625 41.5 59.0625 40.1875 61.375 C35.33629531 64.42110527 30.00799863 63.79080421 24.52441406 62.65234375 C20.13814498 61.60573751 15.81572487 60.36711858 11.5 59.0625 C11.35304688 59.8978125 11.35304688 59.8978125 11.203125 60.75 C9.8804225 67.50034378 7.97304719 74.48329218 2.5 79.0625 C-0.89227002 79.5677317 -2.71941458 79.56758469 -5.625 77.6875 C-9.6265273 72.08536178 -11.52422609 65.82392329 -12.5 59.0625 C-13.52738281 59.35125 -14.55476563 59.64 -15.61328125 59.9375 C-32.40880948 64.50148016 -32.40880948 64.50148016 -39.5 63.0625 C-41.29296875 61.74609375 -41.29296875 61.74609375 -42.5 60.0625 C-42.5 55.93899176 -42.08100216 53.76674505 -39.4375 50.5625 C-37.75557747 49.13107657 -36.07343081 47.69991618 -34.390625 46.26953125 C-33.66359375 45.64433594 -32.9365625 45.01914063 -32.1875 44.375 C-31.49011719 43.79363281 -30.79273437 43.21226563 -30.07421875 42.61328125 C-29.55472656 42.10152344 -29.03523438 41.58976562 -28.5 41.0625 C-28.5 40.4025 -28.5 39.7425 -28.5 39.0625 C-30.35240704 37.45828352 -30.35240704 37.45828352 -32.6875 35.8125 C-41.93327892 28.76532363 -41.93327892 28.76532363 -43.3125 22.1875 C-43.374375 21.15625 -43.43625 20.125 -43.5 19.0625 C-39.42159102 15.47120778 -36.30011185 15.52071781 -31.02734375 15.625 C-24.55320091 16.42799446 -18.5671814 18.74172023 -12.5 21.0625 C-12.47421875 20.505625 -12.4484375 19.94875 -12.421875 19.375 C-11.89365821 12.26808323 -9.77654708 7.28106656 -5.6875 1.5 C-3.5 0.0625 -3.5 0.0625 0 0 Z " fill="#FDE5E7" transform="translate(100.5,47.9375)"/>
<path d="M0 0 C61.38 0 122.76 0 186 0 C186 1.98 186 3.96 186 6 C124.62 6 63.24 6 0 6 C0 4.02 0 2.04 0 0 Z " fill="#2E2F8C" transform="translate(7,174)"/>
<path d="M0 0 C1.65 0 3.3 0 5 0 C5.495 3.465 5.495 3.465 6 7 C6.99 4.69 7.98 2.38 9 0 C10.65 0 12.3 0 14 0 C14.67305018 1.60149886 15.33822227 3.20631029 16 4.8125 C16.37125 5.70582031 16.7425 6.59914063 17.125 7.51953125 C18 10 18 10 18 13 C16.68 13 15.36 13 14 13 C14 12.34 14 11.68 14 11 C12.35 11 10.7 11 9 11 C9 11.66 9 12.32 9 13 C4.23692563 13.95261487 -0.1666528 14.08333357 -5 14 C-5 13.34 -5 12.68 -5 12 C-6.32 12 -7.64 12 -9 12 C-9.33 13.32 -9.66 14.64 -10 16 C-12.8125 16.625 -12.8125 16.625 -16 17 C-16.99 16.34 -17.98 15.68 -19 15 C-19 15.99 -19 16.98 -19 18 C-27.42857143 20.42857143 -27.42857143 20.42857143 -32 19 C-32.0825 19.61875 -32.165 20.2375 -32.25 20.875 C-33 23 -33 23 -34.875 24.25 C-37 25 -37 25 -40 25 C-40.495 23.515 -40.495 23.515 -41 22 C-41.66 22 -42.32 22 -43 22 C-42.8453125 23.3921875 -42.8453125 23.3921875 -42.6875 24.8125 C-43 28 -43 28 -45.25 29.9375 C-48.24661435 31.09528282 -49.05863301 30.91283803 -52 30 C-52.66 30.66 -53.32 31.32 -54 32 C-54 32.99 -54 33.98 -54 35 C-55.485 35.495 -55.485 35.495 -57 36 C-57.33 36.66 -57.66 37.32 -58 38 C-59.32 38 -60.64 38 -62 38 C-62.495 37.505 -62.495 37.505 -63 37 C-63 38.65 -63 40.3 -63 42 C-66 43 -66 43 -68 43 C-68 43.99 -68 44.98 -68 46 C-72.5309594 46 -73.05001046 45.52869421 -76.25 42.625 C-76.95640625 41.99851563 -77.6628125 41.37203125 -78.390625 40.7265625 C-80 39 -80 39 -80 37 C-77.875 35.25 -77.875 35.25 -75 34 C-71.6875 34.8125 -71.6875 34.8125 -69 36 C-69.226875 35.071875 -69.45375 34.14375 -69.6875 33.1875 C-70 30 -70 30 -68.8125 28.0625 C-67 27 -67 27 -65 27.0625 C-62.49133846 28.2384351 -61.48459406 29.69887921 -60 32 C-60.33 29.03 -60.66 26.06 -61 23 C-59.35 22.01 -57.7 21.02 -56 20 C-53.69 21.65 -51.38 23.3 -49 25 C-49.7734375 23.6078125 -49.7734375 23.6078125 -50.5625 22.1875 C-52 19 -52 19 -51 16 C-49.68 16 -48.36 16 -47 16 C-47 16.99 -47 17.98 -47 19 C-45.68 18.67 -44.36 18.34 -43 18 C-43.33 16.35 -43.66 14.7 -44 13 C-42.68 12.67 -41.36 12.34 -40 12 C-39.01 14.31 -38.02 16.62 -37 19 C-36.67 15.7 -36.34 12.4 -36 9 C-34.35 8.67 -32.7 8.34 -31 8 C-29.02 10.31 -27.04 12.62 -25 15 C-25.66 12.03 -26.32 9.06 -27 6 C-23.52254801 4.41030766 -20.83557374 3.58534338 -17 4 C-15 6 -15 6 -14.9375 8.5625 C-14.958125 9.366875 -14.97875 10.17125 -15 11 C-14.505 11.495 -14.505 11.495 -14 12 C-13.87044922 11.06027344 -13.87044922 11.06027344 -13.73828125 10.1015625 C-13.59777344 9.28429688 -13.45726563 8.46703125 -13.3125 7.625 C-13.18488281 6.81289063 -13.05726562 6.00078125 -12.92578125 5.1640625 C-12 3 -12 3 -9.41796875 1.7109375 C-8.22107422 1.35902344 -8.22107422 1.35902344 -7 1 C-6.59007813 1.6496875 -6.18015625 2.299375 -5.7578125 2.96875 C-5.21898438 3.8040625 -4.68015625 4.639375 -4.125 5.5 C-3.59132813 6.3353125 -3.05765625 7.170625 -2.5078125 8.03125 C-2.01023437 8.6809375 -1.51265625 9.330625 -1 10 C-0.34 10 0.32 10 1 10 C0.67 6.7 0.34 3.4 0 0 Z M11 5 C12 7 12 7 12 7 Z M-9 7 C-9 7.66 -9 8.32 -9 9 C-8.34 8.67 -7.68 8.34 -7 8 C-7.66 7.67 -8.32 7.34 -9 7 Z M-22 8 C-21.34 8.66 -20.68 9.32 -20 10 C-19.67 9.34 -19.34 8.68 -19 8 C-19.99 8 -20.98 8 -22 8 Z M-56 26 C-55 28 -55 28 -55 28 Z " fill="#2E308E" transform="translate(87,27)"/>
<path d="M0 0 C1.921875 0.30859375 1.921875 0.30859375 4 1 C5.25 4.0625 5.25 4.0625 6 7 C6.495 6.505 6.99 6.01 7.5 5.5 C11.19724878 3.28165073 13.71162487 3.65965277 18 4 C18.99 4.66 19.98 5.32 21 6 C21 6.99 21 7.98 21 9 C18.36 8.67 15.72 8.34 13 8 C12.67 9.32 12.34 10.64 12 12 C12.99 12.66 13.98 13.32 15 14 C15 13.34 15 12.68 15 12 C14.34 12 13.68 12 13 12 C13 11.01 13 10.02 13 9 C13.94875 9.165 14.8975 9.33 15.875 9.5 C18.80168901 10.0526635 18.80168901 10.0526635 21 10 C21.66 8.68 22.32 7.36 23 6 C29.75 7.75 29.75 7.75 32 10 C31.625 12.4375 31.625 12.4375 31 15 C31 15.99 31 16.98 31 18 C31.38671875 17.55527344 31.7734375 17.11054687 32.171875 16.65234375 C32.69265625 16.08644531 33.2134375 15.52054688 33.75 14.9375 C34.51570313 14.08478516 34.51570313 14.08478516 35.296875 13.21484375 C37 12 37 12 39.140625 12.25390625 C41 13 41 13 42 14 C42.23529412 21.29411765 42.23529412 21.29411765 41 25 C41.99 25 42.98 25 44 25 C44 25.66 44 26.32 44 27 C44.66 26.67 45.32 26.34 46 26 C45.34 25.34 44.68 24.68 44 24 C43.875 21.375 43.875 21.375 44 19 C45.6875 17.8125 45.6875 17.8125 48 17 C50.6875 18.125 50.6875 18.125 53 20 C53.8125 22.1875 53.8125 22.1875 54 24 C52.68 23.67 51.36 23.34 50 23 C50.495 23.99 50.495 23.99 51 25 C50.31428571 29.68571429 50.31428571 29.68571429 49 31 C43.96893645 31.73986229 41.02201357 29.78447093 37 27 C36.0625 24.75 36.0625 24.75 36 23 C34.9275 23.04125 33.855 23.0825 32.75 23.125 C27.53658537 22.95121951 27.53658537 22.95121951 25 21 C24.25 18.875 24.25 18.875 24 17 C23.01 17.99 22.02 18.98 21 20 C20.5875 19.484375 20.175 18.96875 19.75 18.4375 C19.1725 17.963125 18.595 17.48875 18 17 C17.1028125 17.2475 17.1028125 17.2475 16.1875 17.5 C12.88262867 18.25539916 10.93479117 16.49861677 8 15 C7.01 15.33 6.02 15.66 5 16 C4.01 15.34 3.02 14.68 2 14 C2 13.34 2 12.68 2 12 C0.8553125 12.495 0.8553125 12.495 -0.3125 13 C-3 14 -3 14 -6 14 C-5.41892368 10.2397015 -4.34800504 7.46964968 -2.4375 4.1875 C-1.98246094 3.39730469 -1.52742188 2.60710938 -1.05859375 1.79296875 C-0.53458984 0.90544922 -0.53458984 0.90544922 0 0 Z M26 11 C26.33 11.66 26.66 12.32 27 13 C27.33 12.34 27.66 11.68 28 11 C27.34 11 26.68 11 26 11 Z M19 13 C20 16 20 16 20 16 Z M37 17 C37 20 37 20 37 20 Z " fill="#2E308E" transform="translate(115,27)"/>
<path d="M0 0 C3 2 3 2 3.5625 4.625 C2.2475794 12.51452359 -4.11137182 17.21764781 -10.2421875 21.75 C-10.82226562 22.1625 -11.40234375 22.575 -12 23 C-8.43148336 26.68003279 -4.68500942 30.04249682 -0.76953125 33.3515625 C1.56163109 35.52319718 2.88539961 37.25509748 3.375 40.4375 C3 43 3 43 1.6875 45.3125 C-3.16370469 48.35860527 -8.49200137 47.72830421 -13.97558594 46.58984375 C-18.36185502 45.54323751 -22.68427513 44.30461858 -27 43 C-26.34 42.01 -25.68 41.02 -25 40 C-23.58297487 40.14230808 -22.1663904 40.28900746 -20.75 40.4375 C-19.96109375 40.51871094 -19.1721875 40.59992188 -18.359375 40.68359375 C-16 41 -16 41 -14.03125 41.53125 C-11.5558306 42.10250063 -9.2875227 42.09588846 -6.75 42.0625 C-5.85796875 42.05347656 -4.9659375 42.04445312 -4.046875 42.03515625 C-3.03367188 42.01775391 -3.03367188 42.01775391 -2 42 C-3.04596193 35.80573193 -8.42974838 32.36979397 -12.9375 28.4375 C-17.32721838 26.37701994 -19.49352163 27.44604194 -24 29 C-24 28.34 -24 27.68 -24 27 C-24.66 27 -25.32 27 -26 27 C-26 25.02 -26 23.04 -26 21 C-24.35 21.33 -22.7 21.66 -21 22 C-20.67 21.34 -20.34 20.68 -20 20 C-19.24847656 19.86078125 -18.49695313 19.7215625 -17.72265625 19.578125 C-11.36407599 18.22795301 -5.51521434 12.27282151 -2 7 C-1.67 6.01 -1.34 5.02 -1 4 C-9.66540227 4.4053172 -17.65773999 5.61005524 -26 8 C-25.67 10.97 -25.34 13.94 -25 17 C-25.66 17 -26.32 17 -27 17 C-27.33 11.72 -27.66 6.44 -28 1 C-27.67 1.99 -27.34 2.98 -27 4 C-26.14019531 3.71125 -25.28039062 3.4225 -24.39453125 3.125 C-16.18443447 0.54647451 -8.66806007 -1.1011125 0 0 Z " fill="#FCD9DC" transform="translate(139,64)"/>
<path d="M0 0 C0.99 0.33 1.98 0.66 3 1 C3 1.66 3 2.32 3 3 C3.639375 3.28875 4.27875 3.5775 4.9375 3.875 C7 5 7 5 8 7 C8.99 7 9.98 7 11 7 C11 7.99 11 8.98 11 10 C11.66 10.061875 12.32 10.12375 13 10.1875 C15.7794803 10.94027591 17.26712616 11.70234207 19.625 13.25 C25.31852364 16.98061358 31.54491712 19.84830571 38 22 C37.47731534 24.76276177 36.89130413 27.3260876 36 30 C36.66 30 37.32 30 38 30 C38.66 28.02 39.32 26.04 40 24 C41.58357459 24.31127516 43.16684993 24.62407289 44.75 24.9375 C45.63171875 25.11152344 46.5134375 25.28554687 47.421875 25.46484375 C49.63370531 25.9239661 51.81330399 26.43554798 54 27 C55.32 27.33 56.64 27.66 58 28 C57.67 31.3 57.34 34.6 57 38 C54.69 37.67 52.38 37.34 50 37 C49.31292445 34.50935112 49 32.62113708 49 30 C48.34 31.65 47.68 33.3 47 35 C45.68 35 44.36 35 43 35 C43.875 30.25 43.875 30.25 45 28 C44.01 28 43.02 28 42 28 C41.34 29.65 40.68 31.3 40 33 C34.25 32.125 34.25 32.125 32 31 C32.020625 30.195625 32.04125 29.39125 32.0625 28.5625 C32.29633621 26.06645115 32.29633621 26.06645115 31 25 C30.34 26.32 29.68 27.64 29 29 C28.01 29 27.02 29 26 29 C26.33 26.69 26.66 24.38 27 22 C26.401875 22.66 25.80375 23.32 25.1875 24 C23 26 23 26 20 26 C20.165 25.21625 20.33 24.4325 20.5 23.625 C21.0623707 21.11791961 21.0623707 21.11791961 21 19 C20.3503125 19.99 20.3503125 19.99 19.6875 21 C19.130625 21.66 18.57375 22.32 18 23 C17.01 23 16.02 23 15 23 C15.165 22.21625 15.33 21.4325 15.5 20.625 C16.0623707 18.11791961 16.0623707 18.11791961 16 16 C15.01 17.32 14.02 18.64 13 20 C7.93982644 19.5535141 5.56694486 17.404811 2 14 C1.67 13.01 1.34 12.02 1 11 C0.01 11 -0.98 11 -2 11 C-2.33 10.34 -2.66 9.68 -3 9 C-3.99 8.67 -4.98 8.34 -6 8 C-4.55746343 4.63408134 -2.66735273 2.48952921 0 0 Z M-1 6 C-1.33 6.66 -1.66 7.32 -2 8 C-1.34 8 -0.68 8 0 8 C-0.33 7.34 -0.66 6.68 -1 6 Z M8 12 C7.67 12.66 7.34 13.32 7 14 C7.66 14 8.32 14 9 14 C8.67 13.34 8.34 12.68 8 12 Z M9 14 C9 14.66 9 15.32 9 16 C9.66 15.67 10.32 15.34 11 15 C10.34 14.67 9.68 14.34 9 14 Z " fill="#2E308D" transform="translate(18,105)"/>
<path d="M0 0 C3.13773048 0.96360903 6.23743668 1.98243176 9.32421875 3.09765625 C8.66421875 3.75765625 8.00421875 4.41765625 7.32421875 5.09765625 C7.98421875 5.75765625 8.64421875 6.41765625 9.32421875 7.09765625 C5.20875218 6.6567134 1.31169928 6.1507014 -2.67578125 5.03515625 C-6.75905598 3.94142195 -10.46139692 3.94714252 -14.67578125 4.09765625 C-13.3214884 8.29230382 -11.58194211 10.44661328 -8.23828125 13.28515625 C-7.45582031 13.95933594 -6.67335938 14.63351563 -5.8671875 15.328125 C-2.53787394 18.28788973 -2.53787394 18.28788973 1.63671875 18.91015625 C4.74491688 17.97046844 7.46515828 16.62692115 10.32421875 15.09765625 C10.32421875 15.75765625 10.32421875 16.41765625 10.32421875 17.09765625 C9.33421875 17.75765625 8.34421875 18.41765625 7.32421875 19.09765625 C8.31421875 19.42765625 9.30421875 19.75765625 10.32421875 20.09765625 C10.32421875 22.07765625 10.32421875 24.05765625 10.32421875 26.09765625 C9.33421875 26.09765625 8.34421875 26.09765625 7.32421875 26.09765625 C7.65421875 27.08765625 7.98421875 28.07765625 8.32421875 29.09765625 C7.73253906 28.91847656 7.14085938 28.73929688 6.53125 28.5546875 C1.33762434 27.06697426 1.33762434 27.06697426 -3.73828125 28.47265625 C-4.37765625 29.00890625 -5.01703125 29.54515625 -5.67578125 30.09765625 C-5.0481826 27.16886254 -4.08955466 24.73669996 -2.67578125 22.09765625 C-3.39378906 21.85789062 -4.11179687 21.618125 -4.8515625 21.37109375 C-8.09417949 19.90900089 -10.2372902 18.11425475 -12.86328125 15.72265625 C-14.15298828 14.56636719 -14.15298828 14.56636719 -15.46875 13.38671875 C-18.22507802 10.52794314 -19.47833959 8.44684092 -20.05078125 4.53515625 C-19.67578125 2.09765625 -19.67578125 2.09765625 -17.9921875 0.47265625 C-12.64898767 -2.69902392 -5.78228705 -1.41945623 0 0 Z " fill="#FDDEE0" transform="translate(76.67578125,64.90234375)"/>
<path d="M0 0 C4.21013159 1.27807566 5.2355922 2.34240147 7.5 6.0625 C9.49261387 10.11889252 10.5 12.51548172 10.5 17.0625 C9.84 17.0625 9.18 17.0625 8.5 17.0625 C8.5 18.01125 8.5 18.96 8.5 19.9375 C8.5 21.64583333 8.5 23.35416667 8.5 25.0625 C8.81802943 26.73215451 9.14984951 28.39928518 9.5 30.0625 C4.91813373 31.58978876 2.16246839 32.04407229 -2.5 31.0625 C-5.25256244 31.91229475 -5.25256244 31.91229475 -7.5 33.0625 C-7.5 32.4025 -7.5 31.7425 -7.5 31.0625 C-8.49 31.0625 -9.48 31.0625 -10.5 31.0625 C-10.6875 28.6875 -10.6875 28.6875 -10.5 26.0625 C-7.30298398 23.93115599 -6.73148974 23.86555858 -3.125 24.0625 C0.56093505 24.15870711 3.16293401 23.78485664 6.5 22.0625 C6.20665025 15.59413792 4.95676949 11.52642597 1.5 6.0625 C1.5 5.4025 1.5 4.7425 1.5 4.0625 C-0.38658874 4.02724868 -0.38658874 4.02724868 -2.5 5.0625 C-6.61741262 10.63311708 -7.56899766 16.288233 -8.5 23.0625 C-8.83 23.0625 -9.16 23.0625 -9.5 23.0625 C-9.83 21.4125 -10.16 19.7625 -10.5 18.0625 C-11.16 18.7225 -11.82 19.3825 -12.5 20.0625 C-11.97370674 12.6943944 -9.94488494 7.51906146 -5.6875 1.5 C-3.5 0.0625 -3.5 0.0625 0 0 Z " fill="#FEE2E4" transform="translate(100.5,47.9375)"/>
<path d="M0 0 C3.40458459 1.00589999 6.51351489 2.35290868 9.75 3.8125 C10.23220309 7.26159154 10.42474463 10.38124049 9.75 13.8125 C7.48853737 16.48252204 5.0631882 17.76041743 1.75 18.8125 C-2.00813014 18.8125 -4.64036269 18.0070651 -8.1875 16.875 C-10.70986106 14.35263894 -10.68689625 13.30512912 -10.875 9.8125 C-10.74609375 7.125 -10.74609375 7.125 -10.25 4.8125 C-7.9375 2.8125 -7.9375 2.8125 -5.25 1.8125 C-2.25 -0.1875 -2.25 -0.1875 0 0 Z " fill="#C82E34" transform="translate(100.25,78.1875)"/>
<path d="M0 0 C5.85028629 -0.20400323 10.79949955 0.41897052 16.4375 1.9375 C17.15615234 2.11990234 17.87480469 2.30230469 18.61523438 2.49023438 C23.84944994 3.84944994 23.84944994 3.84944994 25 5 C25.5 8.25 25.5 8.25 25 12 C22.40751704 15.00874078 19.54714707 16.88098869 15.5625 17.1875 C9.19312396 14.23583793 2.56210306 9.15543333 -1 3 C-0.67 2.01 -0.34 1.02 0 0 Z " fill="#D7222A" transform="translate(62,68)"/>
<path d="M0 0 C2.60546875 2.09375 2.60546875 2.09375 5.1875 4.5 C6.04730469 5.2940625 6.90710938 6.088125 7.79296875 6.90625 C9.21251217 8.2529319 10.61640763 9.61640763 12 11 C11.625 13.125 11.625 13.125 11 15 C2.41161947 15.71240023 -4.9081731 13.61177122 -13 11 C-13.69444214 5.87848919 -13.69444214 5.87848919 -13 3 C-8.91476777 -1.36354489 -5.3979291 -2.95482969 0 0 Z " fill="#DA2129" transform="translate(126,92)"/>
<path d="M0 0 C-0.78333457 5.86496652 -3.69962584 8.23717261 -8 12 C-8.91265625 12.80630859 -8.91265625 12.80630859 -9.84375 13.62890625 C-11.625 15.0625 -11.625 15.0625 -15 17 C-17.625 16.5 -17.625 16.5 -20 15 C-20.928125 14.62875 -21.85625 14.2575 -22.8125 13.875 C-25 12 -25 12 -25.3125 10.02734375 C-25.3125 8.01553061 -25.16435153 6.0050887 -25 4 C-16.46042325 0.55339605 -9.18716418 -0.53344824 0 0 Z " fill="#D7222B" transform="translate(138,68)"/>
<path d="M0 0 C3.3125 1.625 3.3125 1.625 6 4 C6.16796875 7.6484375 6.16796875 7.6484375 6 11 C-2.49829459 13.77900436 -10.03091948 15.65895285 -19 15 C-18.62555215 9.92212187 -16.30642294 8.00219834 -12.5625 4.75 C-11.07943359 3.44289063 -11.07943359 3.44289063 -9.56640625 2.109375 C-5.85030781 -0.94495248 -4.60194475 -1.35966549 0 0 Z " fill="#D4242C" transform="translate(81,92)"/>
<path d="M0 0 C3.89785009 6.08409811 5.65532373 10.76179827 6 18 C0.75447054 21.27845591 -2.15160286 21.16967943 -8 20 C-8.66 19.67 -9.32 19.34 -10 19 C-10.41855864 12.30306178 -8.89960476 7.30366046 -5.5625 1.5 C-4 0 -4 0 0 0 Z " fill="#D5272F" transform="translate(102,52)"/>
<path d="M0 0 C-0.34467627 7.23820173 -2.10214991 11.91590189 -6 18 C-8.359375 17.75 -8.359375 17.75 -11 17 C-14.9266187 11.82610242 -15.60104168 5.28359349 -16 -1 C-9.83945791 -3.49355275 -5.79486414 -3.03422071 0 0 Z " fill="#DA232B" transform="translate(108,105)"/>
<path d="M0 0 C0.66 0 1.32 0 2 0 C3.06723961 3.46222615 3.10173486 6.64039266 3.0625 10.25 C3.05347656 11.32765625 3.04445313 12.4053125 3.03515625 13.515625 C3.02355469 14.33546875 3.01195313 15.1553125 3 16 C3.969375 16.144375 4.93875 16.28875 5.9375 16.4375 C9 17 9 17 10 18 C10.04063832 19.66617115 10.042721 21.33388095 10 23 C9.67 22.34 9.34 21.68 9 21 C6.47266765 20.34444881 6.47266765 20.34444881 4 20 C4 21.98 4 23.96 4 26 C4.66 26 5.32 26 6 26 C5.34 29.96 4.68 33.92 4 38 C4.66 38.33 5.32 38.66 6 39 C5.34 39.66 4.68 40.32 4 41 C2.96157435 43.31648799 1.9578025 45.64903024 1 48 C0.34 48 -0.32 48 -1 48 C-1.12375 46.7625 -1.2475 45.525 -1.375 44.25 C-1.75746305 41.1237803 -2.30549523 38.71120763 -4 36 C-2.35 36.33 -0.7 36.66 1 37 C1 35.35 1 33.7 1 32 C-0.32 31.67 -1.64 31.34 -3 31 C-2.67 30.01 -2.34 29.02 -2 28 C-1.34 27.67 -0.68 27.34 0 27 C0.46751788 24.64400765 0.46751788 24.64400765 0.625 21.9375 C0.73714844 20.55884766 0.73714844 20.55884766 0.8515625 19.15234375 C0.90054688 18.44207031 0.94953125 17.73179688 1 17 C-0.65 16.67 -2.3 16.34 -4 16 C-3.67 15.01 -3.34 14.02 -3 13 C-1.68 13 -0.36 13 1 13 C0.42655063 10.13275314 0.1385485 9.1385485 -2 7 C-1.34 4.69 -0.68 2.38 0 0 Z " fill="#FEEDEF" transform="translate(109,65)"/>
<path d="M0 0 C0.33 0 0.66 0 1 0 C1 1.98 1 3.96 1 6 C1.99 6.33 2.98 6.66 4 7 C2.02 7.99 2.02 7.99 0 9 C0 10.65 0 12.3 0 14 C0.99 14 1.98 14 3 14 C2.67386719 14.55558594 2.34773438 15.11117187 2.01171875 15.68359375 C0.85332227 18.33582971 0.76470573 20.18180918 0.8125 23.0625 C0.81894531 23.91972656 0.82539062 24.77695313 0.83203125 25.66015625 C0.91409966 28.15477968 0.91409966 28.15477968 2 31 C1.34 31 0.68 31 0 31 C-0.495 32.485 -0.495 32.485 -1 34 C-3.79872437 31.47211993 -5.45773019 29.79588866 -6 26 C-5.01 26 -4.02 26 -3 26 C-3 24.02 -3 22.04 -3 20 C-4.32 19.67 -5.64 19.34 -7 19 C-5.68 18.34 -4.36 17.68 -3 17 C-3.33 13.37 -3.66 9.74 -4 6 C-4.99 5.67 -5.98 5.34 -7 5 C-6.21625 4.731875 -5.4325 4.46375 -4.625 4.1875 C-1.71885077 3.15185568 -1.71885077 3.15185568 0 0 Z " fill="#FEF4F4" transform="translate(90,65)"/>
<path d="M0 0 C1.32 0.33 2.64 0.66 4 1 C4.144375 1.804375 4.28875 2.60875 4.4375 3.4375 C4.74135249 5.92103706 4.74135249 5.92103706 6 7 C8.05396726 6.59070014 8.05396726 6.59070014 10 6 C10.33 7.32 10.66 8.64 11 10 C8.36 12.31 5.72 14.62 3 17 C1.68 16.34 0.36 15.68 -1 15 C-1 12.69 -1 10.38 -1 8 C-1.99 9.485 -1.99 9.485 -3 11 C-4.32 10.67 -5.64 10.34 -7 10 C-5.33248852 6.05860922 -2.77289351 3.2107188 0 0 Z " fill="#2E308E" transform="translate(179,57)"/>
<path d="M0 0 C0.33 0.99 0.66 1.98 1 3 C0.34 3.66 -0.32 4.32 -1 5 C-1.2475 5.763125 -1.495 6.52625 -1.75 7.3125 C-3.4105951 10.88277946 -5.9996044 12.49967033 -9 15 C-9.99 17.475 -9.99 17.475 -11 20 C-6.05 20 -1.1 20 4 20 C3.67 20.99 3.34 21.98 3 23 C-0.08751361 24.20968643 -3.2751873 24.19632959 -6.5625 24.25 C-7.51253906 24.27578125 -8.46257812 24.3015625 -9.44140625 24.328125 C-12 24 -12 24 -13.83984375 22.6953125 C-15 21 -15 21 -15 17.625 C-13.7908975 13.24200344 -12.44326072 11.93043466 -9 9 C-7.58105986 7.77345852 -6.16450159 6.54415758 -4.75 5.3125 C-3.72132812 4.44044922 -3.72132812 4.44044922 -2.671875 3.55078125 C-0.89673637 2.08649533 -0.89673637 2.08649533 0 0 Z " fill="#FEE0E2" transform="translate(73,87)"/>
<path d="M0 0 C2.02037904 3.75337657 3.08673697 7.5689135 4.21875 11.66015625 C4.96225673 14.22790555 4.96225673 14.22790555 7 17 C8.32 17 9.64 17 11 17 C11.26554687 16.45730469 11.53109375 15.91460937 11.8046875 15.35546875 C12.15789062 14.64003906 12.51109375 13.92460938 12.875 13.1875 C13.22304687 12.47980469 13.57109375 11.77210937 13.9296875 11.04296875 C15 9 15 9 17 6 C17 6.66 17 7.32 17 8 C17.99 7.67 18.98 7.34 20 7 C18.34931659 13.03908566 16.70678942 17.73105146 12 22 C8.47849803 22.71867387 6.8917369 22.57700623 3.875 20.625 C1.10479153 16.74670814 -0.39779599 12.46571757 -2 8 C-1.34 7.67 -0.68 7.34 0 7 C0 4.69 0 2.38 0 0 Z " fill="#FEE1E4" transform="translate(91,105)"/>
<path d="M0 0 C0 0.33 0 0.66 0 1 C-2.64 1 -5.28 1 -8 1 C-7.566875 2.02480469 -7.13375 3.04960938 -6.6875 4.10546875 C-6.12453994 5.46595556 -5.56206544 6.82664335 -5 8.1875 C-4.57074219 9.19780273 -4.57074219 9.19780273 -4.1328125 10.22851562 C-2.60793701 13.94993794 -1.62389568 16.96471408 -2 21 C-1.01 21.33 -0.02 21.66 1 22 C-0.32 22 -1.64 22 -3 22 C-3.24234375 21.20335938 -3.4846875 20.40671875 -3.734375 19.5859375 C-6.1957318 11.1499684 -6.1957318 11.1499684 -11 4 C-14.38875038 2.50391566 -14.38875038 2.50391566 -18 3 C-23.90076234 8.09611293 -25.78815808 15.48658008 -27 23 C-27.66 22.67 -28.32 22.34 -29 22 C-28.02515706 16.45878748 -26.64161164 11.75490095 -23.90234375 6.82421875 C-22.77759026 4.71312113 -22.77759026 4.71312113 -22 1 C-25.3 1 -28.6 1 -32 1 C-32 0.67 -32 0.34 -32 0 C-21.19017916 -1.17088968 -10.80081229 -1.31202926 0 0 Z " fill="#CA272E" transform="translate(115,46)"/>
<path d="M0 0 C1 3 1 3 1 5 C1.31802943 6.66965451 1.64984951 8.33678518 2 10 C-2.58186627 11.52728876 -5.33753161 11.98157229 -10 11 C-12.75256244 11.84979475 -12.75256244 11.84979475 -15 13 C-15 12.34 -15 11.68 -15 11 C-15.99 11 -16.98 11 -18 11 C-18.1875 8.625 -18.1875 8.625 -18 6 C-14.80298398 3.86865599 -14.23148974 3.80305858 -10.625 4 C-6.94940752 4.0838083 -4.27925155 3.844579 -1 2 C-0.67 1.34 -0.34 0.68 0 0 Z " fill="#FEF1F3" transform="translate(108,68)"/>
<path d="M0 0 C4.24925258 0.78992516 6.08910865 2.84653437 9 6 C7.68 6.33 6.36 6.66 5 7 C4.67 8.32 4.34 9.64 4 11 C3.01 11 2.02 11 1 11 C1.66 11.33 2.32 11.66 3 12 C2.67 12.99 2.34 13.98 2 15 C-0.9719385 13.87548273 -3.33440687 12.77706209 -6 11 C-5.39305845 7.84669446 -4.3583335 5.81111133 -2.4375 3.25 C-1.98246094 2.63640625 -1.52742187 2.0228125 -1.05859375 1.390625 C-0.70925781 0.93171875 -0.35992187 0.4728125 0 0 Z M2 5 C2.33 5.66 2.66 6.32 3 7 C3.66 6.67 4.32 6.34 5 6 C4.01 5.67 3.02 5.34 2 5 Z " fill="#2E308F" transform="translate(170,50)"/>
<path d="M0 0 C3.5625 0.3125 3.5625 0.3125 5.5625 1.5 C6.5625 3.3125 6.5625 3.3125 6.375 5.875 C5.5625 8.3125 5.5625 8.3125 3.5625 10.3125 C-2.50803942 10.86436722 -2.50803942 10.86436722 -5.4375 9.125 C-6.4375 7.3125 -6.4375 7.3125 -6.25 4.75 C-4.96106047 0.88318141 -4.08558791 0.37141708 0 0 Z " fill="#FDE6E8" transform="translate(99.4375,82.6875)"/>
<path d="M0 0 C0 0.33 0 0.66 0 1 C-5.94 1.495 -5.94 1.495 -12 2 C-8.7 2.33 -5.4 2.66 -2 3 C-2 3.33 -2 3.66 -2 4 C-2.72703125 4.03738281 -3.4540625 4.07476562 -4.203125 4.11328125 C-11.75005117 4.60673411 -18.72624406 5.94941987 -26 8 C-25.67 10.97 -25.34 13.94 -25 17 C-25.66 17 -26.32 17 -27 17 C-27.33 11.72 -27.66 6.44 -28 1 C-27.67 1.99 -27.34 2.98 -27 4 C-26.14019531 3.71125 -25.28039062 3.4225 -24.39453125 3.125 C-15.96322261 0.47699903 -8.87203284 -0.53055346 0 0 Z " fill="#FAD2D6" transform="translate(139,64)"/>
<path d="M0 0 C2.97 0 5.94 0 9 0 C8.67 2.31 8.34 4.62 8 7 C6.68 7 5.36 7 4 7 C2.57412143 7.29142044 1.15621398 7.62500961 -0.25 8 C-1.4875 8.33 -2.725 8.66 -4 9 C-4 8.34 -4 7.68 -4 7 C-4.66 7 -5.32 7 -6 7 C-6 5.02 -6 3.04 -6 1 C-3.525 1.495 -3.525 1.495 -1 2 C-0.67 1.34 -0.34 0.68 0 0 Z " fill="#F2CACD" transform="translate(119,84)"/>
<path d="M0 0 C4.60520528 2.37237848 9.02955583 5.71038342 12 10 C11.6953125 12.22265625 11.6953125 12.22265625 11 14 C2.41161947 14.71240023 -4.9081731 12.61177122 -13 10 C-13 7.36 -13 4.72 -13 2 C-12.34 2 -11.68 2 -11 2 C-11 4.31 -11 6.62 -11 9 C-4.07 9.99 2.86 10.98 10 12 C5.92570064 6.29584247 5.92570064 6.29584247 3 5 C3 4.34 3 3.68 3 3 C2.01 2.67 1.02 2.34 0 2 C0 1.34 0 0.68 0 0 Z " fill="#C8353B" transform="translate(126,93)"/>
<path d="M0 0 C3.10551666 0 4.35261084 0.5393715 7 2 C6 4 6 4 3.4375 5.4375 C2.2309375 6.2109375 2.2309375 6.2109375 1 7 C1 7.99 1 8.98 1 10 C-2.96 10.99 -6.92 11.98 -11 13 C-10.67 12.01 -10.34 11.02 -10 10 C-11.32 9.67 -12.64 9.34 -14 9 C-12.4188708 8.49307308 -10.83498617 7.99473557 -9.25 7.5 C-8.36828125 7.2215625 -7.4865625 6.943125 -6.578125 6.65625 C-4 6 -4 6 0 6 C0 4.02 0 2.04 0 0 Z " fill="#F2C7C9" transform="translate(87,97)"/>
<path d="M0 0 C4.54805635 -0.17835515 7.8794254 0.00214565 12 2 C12 5.3 12 8.6 12 12 C10.02 12.99 10.02 12.99 8 14 C7.01 13.34 6.02 12.68 5 12 C5.66 11.34 6.32 10.68 7 10 C6.67028521 6.70285207 6.3773161 5.3773161 4 3 C1.93125966 2.3574765 1.93125966 2.3574765 0 2 C0 1.34 0 0.68 0 0 Z " fill="#CE2C33" transform="translate(98,80)"/>
<path d="M0 0 C0.99 0.66 1.98 1.32 3 2 C-1.29 2 -5.58 2 -10 2 C-9.525625 3.8975 -9.05125 5.795 -8.5625 7.75 C-7.70833333 11.16666667 -6.85416667 14.58333333 -6 18 C-4.02 17.34 -2.04 16.68 0 16 C-0.66 17.32 -1.32 18.64 -2 20 C-4.25 20.0625 -4.25 20.0625 -7 19 C-10.73192767 13.48804104 -11.58705926 7.5038166 -12 1 C-7.54779565 -0.80208271 -4.66443851 -1.24385027 0 0 Z " fill="#C62930" transform="translate(104,103)"/>
<path d="M0 0 C-1.32 0.33 -2.64 0.66 -4 1 C-3.73343428 3.93443402 -3.73343428 3.93443402 -3 7 C0.6441774 9.4294516 2.71241272 9.16179575 7 9 C6.01 10.32 5.02 11.64 4 13 C2.31727014 12.37498605 0.65369357 11.69822617 -1 11 C-1.928125 10.62875 -2.85625 10.2575 -3.8125 9.875 C-6 8 -6 8 -6.3125 6.02734375 C-6.3125 4.01553061 -6.16435153 2.0050887 -6 0 C-3.50907189 -1.24546405 -2.58919267 -0.7767578 0 0 Z " fill="#C5343A" transform="translate(119,72)"/>
<path d="M0 0 C2.31243792 -0.02685412 4.6249627 -0.04632841 6.9375 -0.0625 C8.22527344 -0.07410156 9.51304687 -0.08570312 10.83984375 -0.09765625 C14 0 14 0 15 1 C15.04080783 2.99958364 15.04254356 5.00045254 15 7 C14.34 7 13.68 7 13 7 C12.67 5.68 12.34 4.36 12 3 C7.71 2.67 3.42 2.34 -1 2 C-0.67 1.34 -0.34 0.68 0 0 Z " fill="#FFF0F2" transform="translate(127,65)"/>
<path d="M0 0 C0.66 0 1.32 0 2 0 C2.4375 3.1875 2.4375 3.1875 2 7 C-0.00449396 9.33857629 -2.18556633 10.77199032 -5 12 C-9.40155847 12.10479901 -11.79552782 9.83824679 -15 7 C-14.278125 7.144375 -13.55625 7.28875 -12.8125 7.4375 C-11.4203125 7.7159375 -11.4203125 7.7159375 -10 8 C-9.175 8.226875 -8.35 8.45375 -7.5 8.6875 C-4.44644205 9.06919474 -2.73349318 8.32769669 0 7 C0 4.69 0 2.38 0 0 Z " fill="#C53037" transform="translate(85,73)"/>
<path d="M0 0 C0.33 0.66 0.66 1.32 1 2 C0.01 2.66 -0.98 3.32 -2 4 C-1.01 4.33 -0.02 4.66 1 5 C1 6.98 1 8.96 1 11 C-0.98 10.34 -2.96 9.68 -5 9 C-5.33 7.35 -5.66 5.7 -6 4 C-4.02 2.68 -2.04 1.36 0 0 Z " fill="#EAAAAD" transform="translate(86,80)"/>
<path d="M0 0 C0 0.33 0 0.66 0 1 C-5.94 1.495 -5.94 1.495 -12 2 C-8.7 2.33 -5.4 2.66 -2 3 C-2 3.33 -2 3.66 -2 4 C-6.62 4.33 -11.24 4.66 -16 5 C-16.33 4.34 -16.66 3.68 -17 3 C-19.02463255 2.34786708 -19.02463255 2.34786708 -21 2 C-13.94887561 -0.21211746 -7.35342179 -0.20177072 0 0 Z " fill="#F9C6C8" transform="translate(139,64)"/>
<path d="M0 0 C0 0.66 0 1.32 0 2 C0.99 2.33 1.98 2.66 3 3 C3 4.65 3 6.3 3 8 C0.03 7.505 0.03 7.505 -3 7 C-3.33 6.01 -3.66 5.02 -4 4 C-6.01508358 3.26676204 -6.01508358 3.26676204 -8 3 C-2.25 0 -2.25 0 0 0 Z " fill="#EBB2B4" transform="translate(107,94)"/>
<path d="M0 0 C0.80050781 0.22042969 1.60101563 0.44085938 2.42578125 0.66796875 C3.23402344 0.88066406 4.04226562 1.09335938 4.875 1.3125 C5.79732422 1.58126953 5.79732422 1.58126953 6.73828125 1.85546875 C6.07828125 2.51546875 5.41828125 3.17546875 4.73828125 3.85546875 C5.39828125 4.51546875 6.05828125 5.17546875 6.73828125 5.85546875 C-1.83314732 4.99832589 -1.83314732 4.99832589 -5.26171875 2.85546875 C-2.89519796 -0.18501265 -2.89519796 -0.18501265 0 0 Z " fill="#FBD2D6" transform="translate(79.26171875,66.14453125)"/>
<path d="M0 0 C1 3 1 3 1 5 C1.31802943 6.66965451 1.64984951 8.33678518 2 10 C0.35 9.67 -1.3 9.34 -3 9 C-3 7.68 -3 6.36 -3 5 C-4.98 5.33 -6.96 5.66 -9 6 C-6 4 -6 4 -3.375 3 C-0.84860062 2.23952738 -0.84860062 2.23952738 0 0 Z " fill="#E9ADAF" transform="translate(108,68)"/>
<path d="M0 0 C2.49310643 3.73965964 2.0603261 5.29070641 1.625 9.6875 C1.51414062 10.86699219 1.40328125 12.04648438 1.2890625 13.26171875 C1.19367188 14.16535156 1.09828125 15.06898437 1 16 C0.67 16 0.34 16 0 16 C-0.33 14.35 -0.66 12.7 -1 11 C-1.66 11.66 -2.32 12.32 -3 13 C-2.52060632 8.28596212 -2.03165952 4.33420699 0 0 Z " fill="#FBD3D5" transform="translate(91,55)"/>
<path d="M0 0 C0 0.33 0 0.66 0 1 C-1.65 1 -3.3 1 -5 1 C-5 1.66 -5 2.32 -5 3 C-3.68 3.33 -2.36 3.66 -1 4 C-7.625 6 -7.625 6 -11 6 C-11.33 5.01 -11.66 4.02 -12 3 C-4.71428571 -1.71428571 -4.71428571 -1.71428571 0 0 Z " fill="#CE373F" transform="translate(103,79)"/>
<path d="M0 0 C0.66 0 1.32 0 2 0 C1.25 4.75 1.25 4.75 -1 7 C-3.6015625 7.1953125 -3.6015625 7.1953125 -6.625 7.125 C-8.12933594 7.09792969 -8.12933594 7.09792969 -9.6640625 7.0703125 C-10.43492187 7.04710938 -11.20578125 7.02390625 -12 7 C-12 6.67 -12 6.34 -12 6 C-7.545 5.505 -7.545 5.505 -3 5 C-5.97 4.505 -5.97 4.505 -9 4 C-9 3.67 -9 3.34 -9 3 C-4.545 2.505 -4.545 2.505 0 2 C0 1.34 0 0.68 0 0 Z " fill="#FDCFD2" transform="translate(139,104)"/>
<path d="M0 0 C-8.06296075 3.69816901 -14.25289089 4.4044224 -23 3 C-23 2.67 -23 2.34 -23 2 C-21.87980469 1.86722656 -20.75960937 1.73445313 -19.60546875 1.59765625 C-18.13279271 1.41943431 -16.66013753 1.24103989 -15.1875 1.0625 C-14.44951172 0.97548828 -13.71152344 0.88847656 -12.95117188 0.79882812 C-1.81135574 -0.56214489 -1.81135574 -0.56214489 0 0 Z " fill="#CC343B" transform="translate(85,109)"/>
<path d="M0 0 C0.99 0 1.98 0 3 0 C2.67 3.3 2.34 6.6 2 10 C1.34 10 0.68 10 0 10 C-0.38922918 8.71254964 -0.76098036 7.41980403 -1.125 6.125 C-1.43824219 5.04605469 -1.43824219 5.04605469 -1.7578125 3.9453125 C-1.83773437 3.30335937 -1.91765625 2.66140625 -2 2 C-1.34 1.34 -0.68 0.68 0 0 Z " fill="#FEF3F4" transform="translate(89,102)"/>
<path d="M0 0 C2.76223278 2.76223278 2.57856291 5.20706617 3 9 C2.34 9 1.68 9 1 9 C0.67 9.99 0.34 10.98 0 12 C-1 11 -1 11 -1.125 7.6875 C-1.02893262 4.85351237 -0.85249568 2.66404901 0 0 Z " fill="#FCD2D5" transform="translate(108,56)"/>
<path d="M0 0 C1.97986082 0.11347619 3.95891598 0.2410935 5.9375 0.375 C7.03964844 0.44460937 8.14179688 0.51421875 9.27734375 0.5859375 C10.62505859 0.79089844 10.62505859 0.79089844 12 1 C12.33 1.66 12.66 2.32 13 3 C11.20841511 3.02696365 9.41671527 3.04637917 7.625 3.0625 C6.62726563 3.07410156 5.62953125 3.08570312 4.6015625 3.09765625 C2 3 2 3 0 2 C0 1.34 0 0.68 0 0 Z " fill="#FFF4F6" transform="translate(124,107)"/>
<path d="M0 0 C1.09570312 0.00902344 2.19140625 0.01804688 3.3203125 0.02734375 C4.16335937 0.03894531 5.00640625 0.05054688 5.875 0.0625 C5.875 0.3925 5.875 0.7225 5.875 1.0625 C2.575 1.3925 -0.725 1.7225 -4.125 2.0625 C-2.475 2.3925 -0.825 2.7225 0.875 3.0625 C0.875 3.3925 0.875 3.7225 0.875 4.0625 C-0.07375 4.18625 -1.0225 4.31 -2 4.4375 C-5.21167191 4.77937177 -5.21167191 4.77937177 -7.125 7.0625 C-7.455 5.0825 -7.785 3.1025 -8.125 1.0625 C-5.36047967 -0.31976016 -3.0788637 -0.03275387 0 0 Z " fill="#F7C5C9" transform="translate(67.125,63.9375)"/>
<path d="M0 0 C1.57554035 2.88628401 2.46276373 5.53342384 3.125 8.75 C3.29257813 9.54921875 3.46015625 10.3484375 3.6328125 11.171875 C3.81457031 12.07679687 3.81457031 12.07679687 4 13 C3.01 12.01 2.02 11.02 1 10 C0.34 10.66 -0.32 11.32 -1 12 C-1.33 10.35 -1.66 8.7 -2 7 C-1.34 7 -0.68 7 0 7 C0 4.69 0 2.38 0 0 Z " fill="#F9C8CA" transform="translate(91,105)"/>
<path d="M0 0 C0.33 0.99 0.66 1.98 1 3 C0.34 3.66 -0.32 4.32 -1 5 C-1.70710678 6.64991582 -2.37943989 8.31562256 -3 10 C-4.32 9.34 -5.64 8.68 -7 8 C-6.21625 7.236875 -5.4325 6.47375 -4.625 5.6875 C-1.92742283 3.09108195 -1.92742283 3.09108195 0 0 Z " fill="#FAD5D9" transform="translate(73,87)"/>
<path d="M0 0 C-0.99 1.485 -0.99 1.485 -2 3 C-5.625 3.6875 -5.625 3.6875 -9 4 C-8.67 2.68 -8.34 1.36 -8 0 C-2.25 -1.125 -2.25 -1.125 0 0 Z " fill="#FFE8EB" transform="translate(124,67)"/>
<path d="M0 0 C0.66 0 1.32 0 2 0 C2.33 2.97 2.66 5.94 3 9 C2.01 9 1.02 9 0 9 C-0.66 8.34 -1.32 7.68 -2 7 C-1.34 4.69 -0.68 2.38 0 0 Z " fill="#FEFAFB" transform="translate(109,65)"/>
<path d="M0 0 C1.32 0.33 2.64 0.66 4 1 C4 2.32 4 3.64 4 5 C4.99 5.33 5.98 5.66 7 6 C5.68 6.33 4.36 6.66 3 7 C3 6.34 3 5.68 3 5 C2.01 5 1.02 5 0 5 C0 3.35 0 1.7 0 0 Z " fill="#E49EA1" transform="translate(90,74)"/>
<path d="M0 0 C5.75 -0.125 5.75 -0.125 8 1 C8 1.66 8 2.32 8 3 C5.03 3 2.06 3 -1 3 C-0.67 2.01 -0.34 1.02 0 0 Z " fill="#FEFEFD" transform="translate(148,181)"/>
<path d="M0 0 C2.64 0.33 5.28 0.66 8 1 C8 1.66 8 2.32 8 3 C4.7 3 1.4 3 -2 3 C-1.34 2.01 -0.68 1.02 0 0 Z " fill="#F7F7F6" transform="translate(102,181)"/>
<path d="M0 0 C0 0.66 0 1.32 0 2 C-2.97 2 -5.94 2 -9 2 C-9 1.34 -9 0.68 -9 0 C-5.93109813 -1.53445094 -3.29905734 -0.54984289 0 0 Z " fill="#FEFEFE" transform="translate(86,182)"/>
<path d="M0 0 C0 0.66 0 1.32 0 2 C1.65 2 3.3 2 5 2 C2.03312999 3.64826111 -0.65626525 4.44271087 -4 5 C-3.67 4.01 -3.34 3.02 -3 2 C-4.32 1.67 -5.64 1.34 -7 1 C-2.25 0 -2.25 0 0 0 Z " fill="#FACED1" transform="translate(80,105)"/>
<path d="M0 0 C0.99 0 1.98 0 3 0 C3.33 3.3 3.66 6.6 4 10 C3.01 10.33 2.02 10.66 1 11 C0.01 10.34 -0.98 9.68 -2 9 C-1.01 8.34 -0.02 7.68 1 7 C1.28056176 4.19438238 1.26710868 2.53421737 0 0 Z " fill="#D12028" transform="translate(105,83)"/>
<path d="M0 0 C1.6254308 0.14095064 3.25034051 0.28792087 4.875 0.4375 C5.77992187 0.51871094 6.68484375 0.59992188 7.6171875 0.68359375 C10 1 10 1 12 2 C11.01 2.99 10.02 3.98 9 5 C5.52276264 3.74433095 2.90617542 2.26656844 0 0 Z " fill="#C5272F" transform="translate(114,80)"/>
<path d="M0 0 C3.375 -0.125 3.375 -0.125 7 0 C7.66 0.66 8.32 1.32 9 2 C5.42355152 3.2380014 2.66305234 2.74926071 -1 2 C-0.67 1.34 -0.34 0.68 0 0 Z " fill="#FFF8F9" transform="translate(63,65)"/>
<path d="M0 0 C1.65 0 3.3 0 5 0 C5.33 0.99 5.66 1.98 6 3 C4.02 3 2.04 3 0 3 C0 2.01 0 1.02 0 0 Z " fill="#FEFEFE" transform="translate(45,181)"/>
<path d="M0 0 C0.99 0.33 1.98 0.66 3 1 C2.67 1.99 2.34 2.98 2 4 C0.35 4.33 -1.3 4.66 -3 5 C-1.125 1.125 -1.125 1.125 0 0 Z " fill="#FFEDF0" transform="translate(65,95)"/>
</svg>
